[h264 @ 0x559b6895f580] Reinit context to 1920x1088, pix_fmt: yuv420p
Input #0, mov,mp4,m4a,3gp,3g2,mj2, from '/var/www/html/project/media/video/original/20230620_152954.mp4':
  Metadata:
    major_brand     : mp42
    minor_version   : 0
    compatible_brands: isommp42
    creation_time   : 2023-06-20T13:30:02.000000Z
    location        : +44.2138+012.0623/
    location-eng    : +44.2138+012.0623/
    com.android.version: 13
    com.android.capture.fps: 60.000000
  Duration: 00:00:06.76, start: 0.000000, bitrate: 19987 kb/s
    Stream #0:0(eng): Video: h264 (High), 1 reference frame (avc1 / 0x31637661), yuv420p(tv, bt709, left), 1920x1080 (1920x1088), 19726 kb/s, 30.03 fps, 30 tbr, 90k tbn, 180k tbc (default)
    Metadata:
      creation_time   : 2023-06-20T13:30:02.000000Z
      handler_name    : VideoHandle
    Stream #0:1(eng): Audio: aac (LC) (mp4a / 0x6134706D), 48000 Hz, stereo, fltp, 256 kb/s (default)
    Metadata:
      creation_time   : 2023-06-20T13:30:02.000000Z
      handler_name    : SoundHandle
Input #1, png_pipe, from '/var/www/html/project/static/images/templates/logo.png':
  Duration: N/A, bitrate: N/A
    Stream #1:0: Video: png, 1 reference frame, rgba(pc), 1920x1080 [SAR 2835:2835 DAR 16:9], 25 tbr, 25 tbn, 25 tbc
[h264 @ 0x559b68989c80] Reinit context to 1280x720, pix_fmt: yuv420p
Input #2, mov,mp4,m4a,3gp,3g2,mj2, from '/var/www/html/project/static/images/templates/Codino.mp4':
  Metadata:
    major_brand     : mp42
    minor_version   : 1
    compatible_brands: isommp41mp42
    creation_time   : 2021-07-11T07:02:58.000000Z
  Duration: 00:00:02.00, start: 0.000000, bitrate: 1007 kb/s
    Stream #2:0(ita): Audio: aac (LC) (mp4a / 0x6134706D), 44100 Hz, stereo, fltp, 102 kb/s (default)
    Metadata:
      creation_time   : 2021-07-11T07:02:58.000000Z
      handler_name    : Core Media Audio
    Stream #2:1(und): Video: h264 (High), 1 reference frame (avc1 / 0x31637661), yuv420p(tv, bt709, progressive, left), 1280x720 [SAR 1:1 DAR 16:9], 813 kb/s, 25 fps, 25 tbr, 25k tbn, 50k tbc (default)
    Metadata:
      creation_time   : 2021-07-11T07:02:58.000000Z
      handler_name    : Core Media Video
[Parsed_scale_0 @ 0x559b689e0740] w:1280 h:720 flags:'bilinear' interl:0
[Parsed_scale_2 @ 0x559b689f0b00] w:1280 h:720 flags:'bilinear' interl:0
[Parsed_scale_4 @ 0x559b689efe80] w:1280 h:720 flags:'bilinear' interl:0
Stream mapping:
  Stream #0:0 (h264) -> scale
  Stream #0:1 (aac) -> concat:in0:a0
  Stream #1:0 (png) -> scale
  Stream #2:0 (aac) -> concat:in1:a0
  Stream #2:1 (h264) -> scale
  concat:out:v0 -> Stream #0:0 (libx264)
  concat:out:a0 -> Stream #0:1 (aac)
Press [q] to stop, [?] for help
[h264 @ 0x559b689a9980] Reinit context to 1920x1088, pix_fmt: yuv420p
[h264 @ 0x559b68e11e80] Reinit context to 1280x720, pix_fmt: yuv420p
[Parsed_scale_0 @ 0x559b6a359e00] w:1280 h:720 flags:'bilinear' interl:0
[Parsed_scale_2 @ 0x559b68ad4540] w:1280 h:720 flags:'bilinear' interl:0
[Parsed_scale_4 @ 0x559b6a363900] w:1280 h:720 flags:'bilinear' interl:0
[graph 0 input from stream 0:0 @ 0x559b6a368100] w:1920 h:1080 pixfmt:yuv420p tb:1/90000 fr:30/1 sar:0/1 sws_param:flags=2
[graph 0 input from stream 1:0 @ 0x559b6a369180] w:1920 h:1080 pixfmt:rgba tb:1/25 fr:25/1 sar:2835/2835 sws_param:flags=2
[graph 0 input from stream 2:1 @ 0x559b6a36a200] w:1280 h:720 pixfmt:yuv420p tb:1/25000 fr:25/1 sar:1/1 sws_param:flags=2
[graph_0_in_0_1 @ 0x559b6a36b1c0] tb:1/48000 samplefmt:fltp samplerate:48000 chlayout:0x3
[graph_0_in_2_0 @ 0x559b6a36c300] tb:1/44100 samplefmt:fltp samplerate:44100 chlayout:0x3
[Parsed_concat_7 @ 0x559b6a366180] auto-inserting filter 'auto_resampler_0' between the filter 'graph_0_in_2_0' and the filter 'Parsed_concat_7'
[Parsed_scale_0 @ 0x559b6a359e00] w:1920 h:1080 fmt:yuv420p sar:0/1 -> w:1280 h:720 fmt:yuv420p sar:0/1 flags:0x2
[Parsed_setsar_1 @ 0x559b6a35a4c0] w:1280 h:720 sar:0/1 dar:16/9 -> sar:1/1 dar:16/9
[Parsed_scale_2 @ 0x559b68ad4540] w:1920 h:1080 fmt:rgba sar:2835/2835 -> w:1280 h:720 fmt:yuva420p sar:1/1 flags:0x2
[Parsed_setsar_3 @ 0x559b6a362f80] w:1280 h:720 sar:1/1 dar:16/9 -> sar:1/1 dar:16/9
[Parsed_overlay_6 @ 0x559b6a365040] main w:1280 h:720 fmt:yuv420p overlay w:1280 h:720 fmt:yuva420p
[Parsed_overlay_6 @ 0x559b6a365040] [framesync @ 0x559b6a3651a8] Selected 1/90000 time base
[Parsed_overlay_6 @ 0x559b6a365040] [framesync @ 0x559b6a3651a8] Sync level 2
[Parsed_scale_4 @ 0x559b6a363900] w:1280 h:720 fmt:yuv420p sar:1/1 -> w:1280 h:720 fmt:yuv420p sar:1/1 flags:0x2
[Parsed_setsar_5 @ 0x559b6a364440] w:1280 h:720 sar:1/1 dar:16/9 -> sar:1/1 dar:16/9
[auto_resampler_0 @ 0x559b6a3723c0] ch:2 chl:stereo fmt:fltp r:44100Hz -> ch:2 chl:stereo fmt:fltp r:48000Hz
[libx264 @ 0x559b689df180] using SAR=1/1
[libx264 @ 0x559b689df180] using cpu capabilities: MMX2 SSE2Fast SSSE3 SSE4.2 AVX FMA3 BMI2 AVX2
[libx264 @ 0x559b689df180] profile High, level 3.1
[libx264 @ 0x559b689df180] 264 - core 155 r2917 0a84d98 - H.264/MPEG-4 AVC codec - Copyleft 2003-2018 - http://www.videolan.org/x264.html - options: cabac=1 ref=1 deblock=1:0:0 analyse=0x3:0x113 me=hex subme=2 psy=1 psy_rd=1.00:0.00 mixed_ref=0 me_range=16 chroma_me=1 trellis=0 8x8dct=1 cqm=0 deadzone=21,11 fast_pskip=1 chroma_qp_offset=0 threads=22 lookahead_threads=5 sliced_threads=0 nr=0 decimate=1 interlaced=0 bluray_compat=0 constrained_intra=0 bframes=3 b_pyramid=2 b_adapt=1 b_bias=0 direct=1 weightb=1 open_gop=0 weightp=1 keyint=250 keyint_min=25 scenecut=40 intra_refresh=0 rc_lookahead=10 rc=crf mbtree=1 crf=18.0 qcomp=0.60 qpmin=0 qpmax=69 qpstep=4 ip_ratio=1.40 aq=1:1.00
Output #0, mp4, to '/var/www/html/project/media/video/watermarks/20230620_152954.mp4':
  Metadata:
    major_brand     : mp42
    minor_version   : 0
    compatible_brands: isommp42
    com.android.capture.fps: 60.000000
    location        : +44.2138+012.0623/
    location-eng    : +44.2138+012.0623/
    com.android.version: 13
    encoder         : Lavf58.29.100
    Stream #0:0: Video: h264 (libx264), 1 reference frame (avc1 / 0x31637661), yuv420p(progressive), 1280x720 [SAR 1:1 DAR 16:9], q=-1--1, 30 fps, 15360 tbn, 30 tbc (default)
    Metadata:
      encoder         : Lavc58.54.100 libx264
    Side data:
      cpb: bitrate max/min/avg: 0/0/0 buffer size: 0 vbv_delay: -1
    Stream #0:1: Audio: aac (LC) (mp4a / 0x6134706D), 48000 Hz, stereo, fltp, delay 1024, 128 kb/s (default)
    Metadata:
      encoder         : Lavc58.54.100 aac
[Parsed_overlay_6 @ 0x559b6a365040] [framesync @ 0x559b6a3651a8] Sync level 0
[Parsed_concat_7 @ 0x559b6a366180] EOF on in0:v0, 1 streams left in segment.
[Parsed_concat_7 @ 0x559b6a366180] EOF on in0:a0, 0 streams left in segment.
[Parsed_concat_7 @ 0x559b6a366180] Segment finished at pts=6758917
[Parsed_concat_7 @ 0x559b6a366180] EOF on in1:v0, 1 streams left in segment.
[Parsed_concat_7 @ 0x559b6a366180] EOF on in1:a0, 0 streams left in segment.
[Parsed_concat_7 @ 0x559b6a366180] Segment finished at pts=8777604
No more output streams to write to, finishing.
frame=  253 fps= 73 q=-1.0 Lsize=    1841kB time=00:00:08.79 bitrate=1715.2kbits/s speed=2.53x    
[AVIOContext @ 0x559b6895d440] Statistics: 0 seeks, 7 writeouts
video:1670kB audio:159kB subtitle:0kB other streams:0kB global headers:0kB muxing overhead: 0.585325%
Input file #0 (/var/www/html/project/media/video/original/20230620_152954.mp4):
  Input stream #0:0 (video): 203 packets read (16665920 bytes); 203 frames decoded; 
  Input stream #0:1 (audio): 315 packets read (215228 bytes); 315 frames decoded (322560 samples); 
  Total: 518 packets (16881148 bytes) demuxed
Input file #1 (/var/www/html/project/static/images/templates/logo.png):
  Input stream #1:0 (video): 1 packets read (111578 bytes); 1 frames decoded; 
  Total: 1 packets (111578 bytes) demuxed
Input file #2 (/var/www/html/project/static/images/templates/Codino.mp4):
  Input stream #2:0 (audio): 89 packets read (26579 bytes); 87 frames decoded (89024 samples); 
  Input stream #2:1 (video): 50 packets read (203365 bytes); 50 frames decoded; 
  Total: 139 packets (229944 bytes) demuxed
Output file #0 (/var/www/html/project/media/video/watermarks/20230620_152954.mp4):
  Output stream #0:0 (video): 253 frames encoded; 253 packets muxed (1710522 bytes); 
  Output stream #0:1 (audio): 412 frames encoded (421234 samples); 413 packets muxed (163308 bytes); 
  Total: 666 packets (1873830 bytes) muxed
[AVIOContext @ 0x559b68a9cdc0] Statistics: 2 seeks, 11 writeouts
[libx264 @ 0x559b689df180] frame I:2     Avg QP: 9.88  size: 27714
[libx264 @ 0x559b689df180] frame P:78    Avg QP:14.80  size: 10629
[libx264 @ 0x559b689df180] frame B:173   Avg QP:17.11  size:  4771
[libx264 @ 0x559b689df180] consecutive B-frames:  6.3%  7.1%  1.2% 85.4%
[libx264 @ 0x559b689df180] mb I  I16..4: 77.3%  8.2% 14.5%
[libx264 @ 0x559b689df180] mb P  I16..4: 17.2%  4.7%  0.5%  P16..4: 17.0%  5.2%  2.9%  0.0%  0.0%    skip:52.5%
[libx264 @ 0x559b689df180] mb B  I16..4:  4.8%  1.0%  0.2%  B16..8: 17.0%  4.5%  0.3%  direct:10.0%  skip:62.1%  L0:46.8% L1:42.7% BI:10.5%
[libx264 @ 0x559b689df180] 8x8 transform intra:18.6% inter:17.0%
[libx264 @ 0x559b689df180] coded y,uvDC,uvAC intra: 23.3% 20.0% 2.0% inter: 6.0% 9.0% 0.4%
[libx264 @ 0x559b689df180] i16 v,h,dc,p: 57% 25% 11%  7%
[libx264 @ 0x559b689df180] i8 v,h,dc,ddl,ddr,vr,hd,vl,hu:  8% 14% 60%  2%  4%  2%  6%  1%  3%
[libx264 @ 0x559b689df180] i4 v,h,dc,ddl,ddr,vr,hd,vl,hu: 14% 20% 23%  6%  8%  6% 11%  5%  7%
[libx264 @ 0x559b689df180] i8c dc,h,v,p: 71% 17%  9%  2%
[libx264 @ 0x559b689df180] Weighted P-Frames: Y:7.7% UV:0.0%
[libx264 @ 0x559b689df180] kb/s:1554.39
[aac @ 0x559b68b1c700] Qavg: 7201.475
[AVIOContext @ 0x559b689663c0] Statistics: 16919038 bytes read, 2 seeks
[AVIOContext @ 0x559b6898cc80] Statistics: 111578 bytes read, 0 seeks
[AVIOContext @ 0x559b68970400] Statistics: 1530915 bytes read, 42 seeks
